<?xml version="1.0" encoding="iso-8859-1"?>
<!-- Generator: Adobe Illustrator 19.0.0, SVG Export Plug-In . SVG Version: 6.00 Build 0)  -->
<svg version="1.1" id="Layer_1" xmlns="http://www.w3.org/2000/svg" xmlns:xlink="http://www.w3.org/1999/xlink" x="0px" y="0px"
	 viewBox="0 0 512 512" style="enable-background:new 0 0 512 512;" xml:space="preserve">
<path style="fill:#FF5200;" d="M420.912,152.725c-2.677,3.748-2.677,8.783,0,12.531l78.969,110.552
	c10.193,14.268-0.008,34.088-17.543,34.088H105.099v43.116H8.084V51.201l0,0c0-23.812,19.304-43.116,43.117-43.116h53.897h377.239
	c17.535,0,27.735,19.819,17.543,34.088L420.912,152.725z"/>
<path style="fill:#990000;" d="M105.099,396.127H51.2c-23.812,0-43.116-19.304-43.116-43.116l0,0
	c0-23.812,19.304-43.116,43.116-43.116h53.898v86.232H105.099z"/>
<path style="fill:#FF8B00;" d="M288.348,180.548H8.084V51.2l0,0c0-23.812,19.304-43.116,43.117-43.116h32.338h291.048
	c13.533,18.015,21.554,40.407,21.554,64.674l0,0C396.141,132.289,347.881,180.548,288.348,180.548z"/>
<path style="fill:#FFFFFF;" d="M156.301,223.663c0,4.466-3.62,8.084-8.084,8.084h-43.118c-4.466,0-8.084-3.618-8.084-8.084
	s3.62-8.084,8.084-8.084h13.474v-97.011l-17.786,23.714c-2.677,3.572-7.745,4.295-11.318,1.617
	c-3.572-2.679-4.296-7.747-1.617-11.318l32.338-43.116c2.087-2.784,5.72-3.919,9.024-2.819c3.302,1.101,5.527,4.19,5.527,7.669
	v121.263h13.474C152.682,215.579,156.301,219.199,156.301,223.663z M331.466,86.232H266.79c-4.466,0-8.084,3.618-8.084,8.084
	c0,4.466,3.62,8.084,8.084,8.084h24.254v78.147c0,4.466,3.62,8.084,8.084,8.084s8.084-3.618,8.084-8.084V102.4h24.254
	c4.466,0,8.084-3.618,8.084-8.084C339.55,89.85,335.931,86.232,331.466,86.232z M202.113,145.516h21.559
	c7.43,0,13.474,6.044,13.474,13.474s-6.045,13.474-13.474,13.474h-32.338c-4.466,0-8.084,3.618-8.084,8.084s3.62,8.084,8.084,8.084
	h32.338c16.345,0,29.643-13.298,29.643-29.642s-13.298-29.642-29.643-29.642h-21.559c-7.43,0-13.474-6.044-13.474-13.474
	s6.045-13.474,13.474-13.474h32.338c4.466,0,8.084-3.618,8.084-8.084c0-4.466-3.62-8.084-8.084-8.084h-32.338
	c-16.345,0-29.643,13.298-29.643,29.642S185.769,145.516,202.113,145.516z M320.686,215.579H180.554
	c-4.466,0-8.084,3.618-8.084,8.084s3.62,8.084,8.084,8.084h140.132c4.466,0,8.084-3.618,8.084-8.084
	S325.151,215.579,320.686,215.579z M354.102,215.579h-1.078c-4.466,0-8.084,3.618-8.084,8.084s3.62,8.084,8.084,8.084h1.078
	c4.466,0,8.084-3.618,8.084-8.084S358.567,215.579,354.102,215.579z"/>
<path d="M17.247,503.916c0,4.466-3.62,8.084-8.084,8.084H8.085c-4.466,0-8.084-3.618-8.084-8.084c0-4.466,3.62-8.084,8.084-8.084
	h1.078C13.628,495.832,17.247,499.45,17.247,503.916z M203.191,495.832h-1.078c-4.466,0-8.084,3.618-8.084,8.084
	c0,4.466,3.62,8.084,8.084,8.084h1.078c4.466,0,8.084-3.618,8.084-8.084C211.275,499.45,207.656,495.832,203.191,495.832z
	 M257.088,495.832h-1.078c-4.466,0-8.084,3.618-8.084,8.084c0,4.466,3.62,8.084,8.084,8.084h1.078c4.466,0,8.084-3.618,8.084-8.084
	C265.172,499.45,261.553,495.832,257.088,495.832z M506.46,271.108c6.484,9.077,7.34,20.876,2.237,30.793
	c-5.105,9.917-15.204,16.078-26.358,16.078H113.183v177.853h56.592c4.466,0,8.084,3.618,8.084,8.084c0,4.466-3.62,8.084-8.084,8.084
	H40.422c-4.466,0-8.084-3.618-8.084-8.084c0-4.466,3.62-8.084,8.084-8.084h56.592v-91.621H51.202
	C22.969,404.211,0,381.242,0,353.011V51.2C0,22.969,22.969,0,51.202,0h431.136c11.154,0,21.254,6.161,26.358,16.078
	c5.104,9.918,4.247,21.716-2.237,30.793l-78.968,110.552c-0.669,0.937-0.669,2.196,0,3.133L506.46,271.108z M97.014,317.979H51.202
	c-19.318,0-35.033,15.715-35.033,35.032c0,19.317,15.715,35.032,35.033,35.032h45.813v-70.063H97.014z M493.302,280.505
	l-78.969-110.552c-4.683-6.558-4.683-15.371,0-21.928l78.97-110.552c2.991-4.189,3.371-9.421,1.015-13.996
	c-2.355-4.577-6.834-7.308-11.981-7.308H51.202c-19.318,0-35.033,15.715-35.033,35.032v264.505
	c9.165-8.612,21.493-13.894,35.033-13.894h431.136c5.147,0,9.626-2.731,11.981-7.308
	C496.673,289.927,496.294,284.694,493.302,280.505z"/>
<g>
</g>
<g>
</g>
<g>
</g>
<g>
</g>
<g>
</g>
<g>
</g>
<g>
</g>
<g>
</g>
<g>
</g>
<g>
</g>
<g>
</g>
<g>
</g>
<g>
</g>
<g>
</g>
<g>
</g>
</svg>
